<svg width="205" height="119" viewBox="0 0 205 119" fill="none" xmlns="http://www.w3.org/2000/svg">
    <path
        d="M5.05682 118V59.8182H17.358V107.858H42.3011V118H5.05682ZM70.1065 118.852C65.6179 118.852 61.7543 117.943 58.5156 116.125C55.2959 114.288 52.8149 111.693 51.0724 108.341C49.33 104.97 48.4588 100.983 48.4588 96.3807C48.4588 91.892 49.33 87.9527 51.0724 84.5625C52.8149 81.1723 55.2675 78.5303 58.4304 76.6364C61.6122 74.7424 65.3433 73.7955 69.6236 73.7955C72.5024 73.7955 75.1823 74.2595 77.6634 75.1875C80.1634 76.0966 82.3414 77.4697 84.1974 79.3068C86.0724 81.1439 87.5308 83.4545 88.5724 86.2386C89.6141 89.0038 90.1349 92.2424 90.1349 95.9545V99.2784H53.2884V91.7784H78.7429C78.7429 90.036 78.3641 88.4924 77.6065 87.1477C76.849 85.803 75.7978 84.7519 74.4531 83.9943C73.1274 83.2178 71.5838 82.8295 69.8224 82.8295C67.9853 82.8295 66.3565 83.2557 64.9361 84.108C63.5346 84.9413 62.4361 86.0682 61.6406 87.4886C60.8452 88.8902 60.438 90.4527 60.419 92.1761V99.3068C60.419 101.466 60.8168 103.331 61.6122 104.903C62.4266 106.475 63.5724 107.688 65.0497 108.54C66.527 109.392 68.2789 109.818 70.3054 109.818C71.6501 109.818 72.8812 109.629 73.9986 109.25C75.116 108.871 76.0724 108.303 76.8679 107.545C77.6634 106.788 78.2694 105.86 78.6861 104.761L89.8793 105.5C89.3111 108.189 88.1463 110.538 86.3849 112.545C84.6425 114.534 82.3887 116.087 79.6236 117.205C76.8774 118.303 73.705 118.852 70.1065 118.852ZM110.135 92.7727V118H98.0327V74.3636H109.567V82.0625H110.078C111.044 79.5246 112.663 77.517 114.936 76.0398C117.209 74.5436 119.964 73.7955 123.203 73.7955C126.233 73.7955 128.875 74.4583 131.129 75.7841C133.383 77.1098 135.135 79.0038 136.385 81.4659C137.635 83.9091 138.26 86.8258 138.26 90.2159V118H126.158V92.375C126.177 89.7045 125.495 87.6212 124.112 86.125C122.73 84.6098 120.826 83.8523 118.402 83.8523C116.773 83.8523 115.334 84.2027 114.084 84.9034C112.853 85.6042 111.887 86.6269 111.186 87.9716C110.504 89.2973 110.154 90.8977 110.135 92.7727Z"
        fill="black" />
    <circle cx="182.926" cy="21.9259" r="18.9259" fill="#64FF74" stroke="#64FF74" stroke-width="6" />
    <circle cx="123.815" cy="41.4815" r="18.9259" stroke="#64FF74" stroke-width="6" />
    <circle cx="173.926" cy="79.9259" r="18.9259" fill="#64FF74" stroke="#64FF74" stroke-width="6" />
    <line x1="145.671" y1="59.5084" x2="161.412" y2="70.0639" stroke="#64FF74" stroke-width="6" />
    <path d="M150 34L169 27" stroke="#64FF74" stroke-width="6" />
</svg>