<svg width="52" height="48" viewBox="0 0 52 48" fill="none" xmlns="http://www.w3.org/2000/svg">
    <rect width="48" height="48" fill="white" />
    <path
        d="M3.07457 34V21.6364H5.68857V31.8448H10.989V34H3.07457ZM16.8976 34.1811C15.9438 34.1811 15.1228 33.9879 14.4346 33.6016C13.7504 33.2112 13.2232 32.6598 12.8529 31.9474C12.4826 31.2311 12.2975 30.3839 12.2975 29.4059C12.2975 28.4521 12.4826 27.6149 12.8529 26.8945C13.2232 26.1741 13.7443 25.6127 14.4165 25.2102C15.0926 24.8078 15.8854 24.6065 16.795 24.6065C17.4068 24.6065 17.9762 24.7051 18.5035 24.9023C19.0347 25.0955 19.4975 25.3873 19.892 25.7777C20.2904 26.1681 20.6003 26.6591 20.8216 27.2507C21.043 27.8383 21.1537 28.5265 21.1537 29.3153V30.0217H13.3238V28.4279H18.7329C18.7329 28.0576 18.6524 27.7296 18.4914 27.4439C18.3304 27.1581 18.107 26.9348 17.8213 26.7738C17.5396 26.6088 17.2116 26.5263 16.8373 26.5263C16.4469 26.5263 16.1008 26.6168 15.7989 26.7979C15.5011 26.975 15.2677 27.2145 15.0986 27.5163C14.9296 27.8142 14.8431 28.1462 14.839 28.5124V30.0277C14.839 30.4865 14.9236 30.8829 15.0926 31.217C15.2657 31.551 15.5091 31.8086 15.8231 31.9897C16.137 32.1708 16.5093 32.2614 16.9399 32.2614C17.2256 32.2614 17.4872 32.2211 17.7247 32.1406C17.9622 32.0601 18.1654 31.9394 18.3344 31.7784C18.5035 31.6174 18.6323 31.4202 18.7208 31.1868L21.0993 31.3438C20.9786 31.9152 20.7311 32.4143 20.3568 32.8409C19.9865 33.2635 19.5076 33.5935 18.92 33.831C18.3364 34.0644 17.6623 34.1811 16.8976 34.1811ZM25.4037 28.6392V34H22.8319V24.7273H25.2829V26.3633H25.3916C25.5969 25.824 25.941 25.3974 26.4239 25.0835C26.9069 24.7655 27.4925 24.6065 28.1807 24.6065C28.8246 24.6065 29.386 24.7474 29.865 25.0291C30.3439 25.3108 30.7162 25.7133 30.9818 26.2365C31.2474 26.7557 31.3802 27.3755 31.3802 28.0959V34H28.8085V28.5547C28.8125 27.9872 28.6676 27.5445 28.3738 27.2266C28.08 26.9046 27.6756 26.7436 27.1604 26.7436C26.8143 26.7436 26.5084 26.8181 26.2428 26.967C25.9812 27.1159 25.776 27.3332 25.627 27.619C25.4822 27.9007 25.4077 28.2408 25.4037 28.6392Z"
        fill="black" />
    <line x1="32.3" y1="21.6" x2="36.3" y2="24.6" stroke="#64FF74" />
    <circle cx="42" cy="15" r="4.5" fill="#64FF74" stroke="#64FF74" />
    <circle cx="28" cy="18" r="4.5" stroke="#64FF74" />
    <circle cx="40" cy="27" r="4.5" fill="#64FF74" stroke="#64FF74" />
    <path d="M33.5 17.5L38 16" stroke="#64FF74" />
</svg>