<svg width="44" height="25" viewBox="0 0 44 25" fill="none" xmlns="http://www.w3.org/2000/svg">
    <path
        d="M0.0745739 24V11.6364H2.68857V21.8448H7.98899V24H0.0745739ZM13.8976 24.1811C12.9438 24.1811 12.1228 23.9879 11.4346 23.6016C10.7504 23.2112 10.2232 22.6598 9.85289 21.9474C9.48263 21.2311 9.2975 20.3839 9.2975 19.4059C9.2975 18.4521 9.48263 17.6149 9.85289 16.8945C10.2232 16.1741 10.7443 15.6127 11.4165 15.2102C12.0926 14.8078 12.8854 14.6065 13.795 14.6065C14.4068 14.6065 14.9762 14.7051 15.5035 14.9023C16.0347 15.0955 16.4975 15.3873 16.892 15.7777C17.2904 16.1681 17.6003 16.6591 17.8216 17.2507C18.043 17.8383 18.1537 18.5265 18.1537 19.3153V20.0217H10.3238V18.4279H15.7329C15.7329 18.0576 15.6524 17.7296 15.4914 17.4439C15.3304 17.1581 15.107 16.9348 14.8213 16.7738C14.5396 16.6088 14.2116 16.5263 13.8373 16.5263C13.4469 16.5263 13.1008 16.6168 12.7989 16.7979C12.5011 16.975 12.2677 17.2145 12.0986 17.5163C11.9296 17.8142 11.8431 18.1462 11.839 18.5124V20.0277C11.839 20.4865 11.9236 20.8829 12.0926 21.217C12.2657 21.551 12.5091 21.8086 12.8231 21.9897C13.137 22.1708 13.5093 22.2614 13.9399 22.2614C14.2256 22.2614 14.4872 22.2211 14.7247 22.1406C14.9622 22.0601 15.1654 21.9394 15.3344 21.7784C15.5035 21.6174 15.6323 21.4202 15.7208 21.1868L18.0993 21.3438C17.9786 21.9152 17.7311 22.4143 17.3568 22.8409C16.9865 23.2635 16.5076 23.5935 15.92 23.831C15.3364 24.0644 14.6623 24.1811 13.8976 24.1811ZM22.4037 18.6392V24H19.8319V14.7273H22.2829V16.3633H22.3916C22.5969 15.824 22.941 15.3974 23.4239 15.0835C23.9069 14.7655 24.4925 14.6065 25.1807 14.6065C25.8246 14.6065 26.386 14.7474 26.865 15.0291C27.3439 15.3108 27.7162 15.7133 27.9818 16.2365C28.2474 16.7557 28.3802 17.3755 28.3802 18.0959V24H25.8085V18.5547C25.8125 17.9872 25.6676 17.5445 25.3738 17.2266C25.08 16.9046 24.6756 16.7436 24.1604 16.7436C23.8143 16.7436 23.5084 16.8181 23.2428 16.967C22.9812 17.1159 22.776 17.3332 22.627 17.619C22.4822 17.9007 22.4077 18.2408 22.4037 18.6392Z"
        fill="black" />
    <path
        d="M25 12.5C22.5147 12.5 20.5 10.4853 20.5 8C20.5 5.51472 22.5147 3.5 25 3.5C27.4853 3.5 29.5 5.51472 29.5 8C29.5 9.22662 29.0099 10.3378 28.2137 11.15C27.3964 11.9837 26.2589 12.5 25 12.5ZM43 5.5C43 7.98528 40.9853 10 38.5 10C36.4858 10 34.7795 8.67633 34.2059 6.85018C34.0723 6.42458 34 5.9712 34 5.5C34 3.01472 36.0147 1 38.5 1C40.9853 1 43 3.01472 43 5.5ZM41 17.5C41 19.9853 38.9853 22 36.5 22C34.0147 22 32 19.9853 32 17.5C32 16.6795 32.2191 15.9117 32.6017 15.2504C33.3805 13.904 34.835 13 36.5 13C38.9853 13 41 15.0147 41 17.5Z"
        stroke="#64FF74" />
    <line x1="29.3" y1="11.6" x2="33.3" y2="14.6" stroke="#64FF74" />
    <line x1="30.8419" y1="6.52566" x2="33.8419" y2="5.52566" stroke="#64FF74" />
</svg>