<svg width="54" height="43" viewBox="0 0 54 43" fill="none" xmlns="http://www.w3.org/2000/svg">
    <path
        d="M1.07457 24V11.6364H3.68857V21.8448H8.98899V24H1.07457ZM14.8976 24.1811C13.9438 24.1811 13.1228 23.9879 12.4346 23.6016C11.7504 23.2112 11.2232 22.6598 10.8529 21.9474C10.4826 21.2311 10.2975 20.3839 10.2975 19.4059C10.2975 18.4521 10.4826 17.6149 10.8529 16.8945C11.2232 16.1741 11.7443 15.6127 12.4165 15.2102C13.0926 14.8078 13.8854 14.6065 14.795 14.6065C15.4068 14.6065 15.9762 14.7051 16.5035 14.9023C17.0347 15.0955 17.4975 15.3873 17.892 15.7777C18.2904 16.1681 18.6003 16.6591 18.8216 17.2507C19.043 17.8383 19.1537 18.5265 19.1537 19.3153V20.0217H11.3238V18.4279H16.7329C16.7329 18.0576 16.6524 17.7296 16.4914 17.4439C16.3304 17.1581 16.107 16.9348 15.8213 16.7738C15.5396 16.6088 15.2116 16.5263 14.8373 16.5263C14.4469 16.5263 14.1008 16.6168 13.7989 16.7979C13.5011 16.975 13.2677 17.2145 13.0986 17.5163C12.9296 17.8142 12.8431 18.1462 12.839 18.5124V20.0277C12.839 20.4865 12.9236 20.8829 13.0926 21.217C13.2657 21.551 13.5091 21.8086 13.8231 21.9897C14.137 22.1708 14.5093 22.2614 14.9399 22.2614C15.2256 22.2614 15.4872 22.2211 15.7247 22.1406C15.9622 22.0601 16.1654 21.9394 16.3344 21.7784C16.5035 21.6174 16.6323 21.4202 16.7208 21.1868L19.0993 21.3438C18.9786 21.9152 18.7311 22.4143 18.3568 22.8409C17.9865 23.2635 17.5076 23.5935 16.92 23.831C16.3364 24.0644 15.6623 24.1811 14.8976 24.1811ZM23.4037 18.6392V24H20.8319V14.7273H23.2829V16.3633H23.3916C23.5969 15.824 23.941 15.3974 24.4239 15.0835C24.9069 14.7655 25.4925 14.6065 26.1807 14.6065C26.8246 14.6065 27.386 14.7474 27.865 15.0291C28.3439 15.3108 28.7162 15.7133 28.9818 16.2365C29.2474 16.7557 29.3802 17.3755 29.3802 18.0959V24H26.8085V18.5547C26.8125 17.9872 26.6676 17.5445 26.3738 17.2266C26.08 16.9046 25.6756 16.7436 25.1604 16.7436C24.8143 16.7436 24.5084 16.8181 24.2428 16.967C23.9812 17.1159 23.776 17.3332 23.627 17.619C23.4822 17.9007 23.4077 18.2408 23.4037 18.6392Z"
        fill="white" />
    <line x1="30.3" y1="11.6" x2="34.3" y2="14.6" stroke="#64FF74" />
    <circle cx="40" cy="5" r="4.5" fill="#64FF74" stroke="#64FF74" />
    <circle cx="26" cy="8" r="4.5" stroke="#64FF74" />
    <circle cx="38" cy="17" r="4.5" fill="#64FF74" stroke="#64FF74" />
    <path d="M31.5 7.5L36 6" stroke="#64FF74" />
</svg>